<mxfile host="app.diagrams.net" modified="2024-03-13T18:37:25.938Z" agent="Mozilla/5.0 (X11; Linux x86_64) AppleWebKit/537.36 (KHTML, like Gecko) Chrome/122.0.0.0 Safari/537.36" etag="iVPqpOui_IeJcpYk9M_j" version="24.0.5" type="github">
  <diagram name="Page-1" id="Cz2mU-y3INq50Nm3G7DK">
    <mxGraphModel dx="1900" dy="544" grid="1" gridSize="10" guides="1" tooltips="1" connect="1" arrows="1" fold="1" page="1" pageScale="1" pageWidth="850" pageHeight="1100" math="0" shadow="0">
      <root>
        <mxCell id="0" />
        <mxCell id="1" parent="0" />
        <mxCell id="4yQBbtmOtqcYmhO1tkW--6" style="edgeStyle=orthogonalEdgeStyle;rounded=0;orthogonalLoop=1;jettySize=auto;html=1;entryX=0;entryY=0.5;entryDx=0;entryDy=0;" edge="1" parent="1" source="4yQBbtmOtqcYmhO1tkW--1" target="4yQBbtmOtqcYmhO1tkW--5">
          <mxGeometry relative="1" as="geometry">
            <Array as="points">
              <mxPoint y="270" />
            </Array>
          </mxGeometry>
        </mxCell>
        <mxCell id="4yQBbtmOtqcYmhO1tkW--1" value="Empleado" style="rounded=0;whiteSpace=wrap;html=1;" vertex="1" parent="1">
          <mxGeometry x="-40" y="160" width="120" height="60" as="geometry" />
        </mxCell>
        <mxCell id="4yQBbtmOtqcYmhO1tkW--3" value="Empresa" style="shape=process;whiteSpace=wrap;html=1;backgroundOutline=1;" vertex="1" parent="1">
          <mxGeometry x="380" y="160" width="120" height="60" as="geometry" />
        </mxCell>
        <mxCell id="4yQBbtmOtqcYmhO1tkW--9" style="edgeStyle=orthogonalEdgeStyle;rounded=0;orthogonalLoop=1;jettySize=auto;html=1;entryX=0;entryY=0.5;entryDx=0;entryDy=0;" edge="1" parent="1" source="4yQBbtmOtqcYmhO1tkW--4" target="4yQBbtmOtqcYmhO1tkW--8">
          <mxGeometry relative="1" as="geometry">
            <Array as="points">
              <mxPoint x="240" y="270" />
            </Array>
          </mxGeometry>
        </mxCell>
        <mxCell id="4yQBbtmOtqcYmhO1tkW--4" value="Departamento" style="shape=process;whiteSpace=wrap;html=1;backgroundOutline=1;" vertex="1" parent="1">
          <mxGeometry x="160" y="160" width="120" height="60" as="geometry" />
        </mxCell>
        <mxCell id="4yQBbtmOtqcYmhO1tkW--7" style="edgeStyle=orthogonalEdgeStyle;rounded=0;orthogonalLoop=1;jettySize=auto;html=1;entryX=0.5;entryY=1;entryDx=0;entryDy=0;" edge="1" parent="1" source="4yQBbtmOtqcYmhO1tkW--5" target="4yQBbtmOtqcYmhO1tkW--4">
          <mxGeometry relative="1" as="geometry">
            <Array as="points">
              <mxPoint x="200" y="270" />
              <mxPoint x="200" y="220" />
            </Array>
          </mxGeometry>
        </mxCell>
        <mxCell id="4yQBbtmOtqcYmhO1tkW--5" value="trabaja" style="rhombus;whiteSpace=wrap;html=1;" vertex="1" parent="1">
          <mxGeometry x="90" y="230" width="80" height="80" as="geometry" />
        </mxCell>
        <mxCell id="4yQBbtmOtqcYmhO1tkW--11" style="edgeStyle=orthogonalEdgeStyle;rounded=0;orthogonalLoop=1;jettySize=auto;html=1;entryX=0.5;entryY=1;entryDx=0;entryDy=0;" edge="1" parent="1" target="4yQBbtmOtqcYmhO1tkW--3">
          <mxGeometry relative="1" as="geometry">
            <mxPoint x="390" y="270" as="sourcePoint" />
            <Array as="points">
              <mxPoint x="440" y="260" />
            </Array>
          </mxGeometry>
        </mxCell>
        <mxCell id="4yQBbtmOtqcYmhO1tkW--8" value="pertenece" style="rhombus;whiteSpace=wrap;html=1;" vertex="1" parent="1">
          <mxGeometry x="310" y="230" width="80" height="80" as="geometry" />
        </mxCell>
        <mxCell id="4yQBbtmOtqcYmhO1tkW--12" value="Nombre&lt;div&gt;Edad&lt;/div&gt;&lt;div&gt;Sexo&lt;/div&gt;" style="rounded=1;whiteSpace=wrap;html=1;dashed=1;" vertex="1" parent="1">
          <mxGeometry x="-80" y="40" width="120" height="60" as="geometry" />
        </mxCell>
        <mxCell id="4yQBbtmOtqcYmhO1tkW--14" value="Cant. empleados&lt;div&gt;Categoría&lt;/div&gt;&lt;div&gt;Jefe de departamento&lt;/div&gt;" style="rounded=1;whiteSpace=wrap;html=1;dashed=1;" vertex="1" parent="1">
          <mxGeometry x="150" y="40" width="120" height="60" as="geometry" />
        </mxCell>
        <mxCell id="4yQBbtmOtqcYmhO1tkW--15" value="Nombre&lt;div&gt;Ubicación&lt;/div&gt;&lt;div&gt;Año de fundación&lt;/div&gt;" style="rounded=1;whiteSpace=wrap;html=1;dashed=1;" vertex="1" parent="1">
          <mxGeometry x="380" y="40" width="120" height="60" as="geometry" />
        </mxCell>
        <mxCell id="4yQBbtmOtqcYmhO1tkW--16" value="0:M" style="text;html=1;align=center;verticalAlign=middle;whiteSpace=wrap;rounded=0;" vertex="1" parent="1">
          <mxGeometry x="160" y="270" width="60" height="30" as="geometry" />
        </mxCell>
        <mxCell id="4yQBbtmOtqcYmhO1tkW--17" value="0:M" style="text;html=1;align=center;verticalAlign=middle;whiteSpace=wrap;rounded=0;" vertex="1" parent="1">
          <mxGeometry x="10" y="270" width="60" height="30" as="geometry" />
        </mxCell>
        <mxCell id="4yQBbtmOtqcYmhO1tkW--18" value="1:M" style="text;html=1;align=center;verticalAlign=middle;whiteSpace=wrap;rounded=0;" vertex="1" parent="1">
          <mxGeometry x="250" y="270" width="60" height="30" as="geometry" />
        </mxCell>
        <mxCell id="4yQBbtmOtqcYmhO1tkW--19" value="1:M" style="text;html=1;align=center;verticalAlign=middle;whiteSpace=wrap;rounded=0;" vertex="1" parent="1">
          <mxGeometry x="380" y="255" width="60" height="30" as="geometry" />
        </mxCell>
      </root>
    </mxGraphModel>
  </diagram>
</mxfile>
